<?xml version="1.0" encoding="utf-8"?>
<!-- Generator: Adobe Illustrator 26.0.1, SVG Export Plug-In . SVG Version: 6.00 Build 0)  -->
<svg version="1.1" id="Layer_1" xmlns="http://www.w3.org/2000/svg" xmlns:xlink="http://www.w3.org/1999/xlink" x="0px" y="0px"
	 width="150px" height="114.5px" viewBox="0 0 150 114.5" style="enable-background:new 0 0 150 114.5;" xml:space="preserve">
<style type="text/css">
	.st0{fill:url(#SVGID_1_);}
	.st1{fill:url(#SVGID_00000064317841815461024100000010377017846791680386_);}
	.st2{fill:url(#SVGID_00000142160486337301631990000008621463908937402003_);}
	.st3{fill:url(#SVGID_00000142143206186016158990000016266038719168755612_);}
	.st4{fill:url(#SVGID_00000000936569249516062050000013844262550648833722_);}
	.st5{fill:url(#SVGID_00000043415580291330999510000014551149418465580219_);}
	.st6{fill:url(#SVGID_00000020378033504502299880000011005058757474472095_);}
	.st7{fill:url(#SVGID_00000070078587612450654610000018321365477966693302_);}
</style>
<g>
	<linearGradient id="SVGID_1_" gradientUnits="userSpaceOnUse" x1="-29.953" y1="94.9723" x2="88.8618" y2="-5.1759">
		<stop  offset="0" style="stop-color:#FBB040"/>
		<stop  offset="0.486" style="stop-color:#FCF284"/>
		<stop  offset="1" style="stop-color:#DEAF26"/>
	</linearGradient>
	<path class="st0" d="M40.2,33.3c3.8-2.2,6.7-3.8,9.7-5.5C47.1,33.8,46.3,34.2,40.2,33.3z"/>
	
		<linearGradient id="SVGID_00000121974656557014130340000005675128242150854818_" gradientUnits="userSpaceOnUse" x1="-53.7354" y1="87.4602" x2="96.5735" y2="-3.572">
		<stop  offset="0" style="stop-color:#FBB040"/>
		<stop  offset="0.486" style="stop-color:#FCF284"/>
		<stop  offset="1" style="stop-color:#DEAF26"/>
	</linearGradient>
	<path style="fill:url(#SVGID_00000121974656557014130340000005675128242150854818_);" d="M53.6,19.9c0.2,4.7-1.1,6.9-3.9,6.4
		C51,24.2,52.2,22.2,53.6,19.9z"/>
	
		<linearGradient id="SVGID_00000148638978380380758020000011836083538803063737_" gradientUnits="userSpaceOnUse" x1="-12.0503" y1="116.2119" x2="106.7645" y2="16.0637">
		<stop  offset="0" style="stop-color:#FBB040"/>
		<stop  offset="0.486" style="stop-color:#FCF284"/>
		<stop  offset="1" style="stop-color:#DEAF26"/>
	</linearGradient>
	<path style="fill:url(#SVGID_00000148638978380380758020000011836083538803063737_);" d="M81.4,77.1H27.8c-1.7-8-0.5-13.4,7-31
		C30.3,46.7,22.2,56,18,65.7c2,0.2,3.9,0.3,6,0.5v11H7.7c-3-11.2,3.7-18.4,10.1-25.7c5.7-4.7,11.5-9.5,17.2-14.2
		c3-0.6,5.9-1.2,10.1-2c-5.6,10.1-8.5,19.7-8.3,30.4h6.7c1.2-6.5,2.3-12.6,3.4-18.7c0.2,0.1,0.4,0.1,0.7,0.2c0,4.3-0.3,8.6,0.1,12.9
		c0.5,6,1.3,6.4,6.8,5.6c-0.8-6.5-1.5-13-2.3-19.5c0.5-0.1,0.9-0.1,1.4-0.2c0.7,3.2,1.4,6.5,2.1,9.7c0.3,1.2,0.6,2.4,1,3.6
		c2.6,7.5,3.3,7.8,11.9,6.1c-7.1-8-9.5-17.6-10.6-26.9c2.6,4.9,5,10.7,8.4,15.8c2.4,3.6,6.2,6.4,9.4,9.4
		C79.4,67.3,82.4,71.2,81.4,77.1z"/>
	
		<linearGradient id="SVGID_00000046324083385239856460000002091672623596452489_" gradientUnits="userSpaceOnUse" x1="-6.397719e-02" y1="130.4323" x2="118.7508" y2="30.2842">
		<stop  offset="0" style="stop-color:#FBB040"/>
		<stop  offset="0.486" style="stop-color:#FCF284"/>
		<stop  offset="1" style="stop-color:#DEAF26"/>
	</linearGradient>
	<path style="fill:url(#SVGID_00000046324083385239856460000002091672623596452489_);" d="M98.9,95.8H64.1V82.2c7.2,0,14-0.1,20.8,0
		c2.8,0.1,3.5-0.9,3.6-3.7c0.2-9.8-5-16.5-12.3-21.7C68,51,62.3,43.8,59.7,34.1c-0.1-0.5-0.2-0.9-0.6-2.3c2.4,3.5,4,6.5,6.1,9
		c2.2,2.5,4.6,4.9,7.2,6.9c3.6,2.8,7.5,5.2,11.3,7.8c9.8,6.8,14.9,16,15.1,28C98.9,87.6,98.9,91.6,98.9,95.8z"/>
	
		<linearGradient id="SVGID_00000009590351164586731040000012661981715993846204_" gradientUnits="userSpaceOnUse" x1="5.3821" y1="136.8936" x2="124.1969" y2="36.7454">
		<stop  offset="0" style="stop-color:#FBB040"/>
		<stop  offset="0.486" style="stop-color:#FCF284"/>
		<stop  offset="1" style="stop-color:#DEAF26"/>
	</linearGradient>
	<path style="fill:url(#SVGID_00000009590351164586731040000012661981715993846204_);" d="M141,87.8h-19.7c-1.1,0-2,0.9-2,2v3.7
		c-0.3,0.8-0.9,1.6-2.1,2.2c0-2.2,0-3.7,0-5.2c0.2-23.2-10.5-39.1-31.7-48.3c-9.5-4.1-16.7-10.9-22.1-19.9
		c-3.1-5.2-1.6-11.1-3.8-16.3c-0.4-1-0.4-2.2-0.7-3.3C58.6,2,58.3,1.1,58,0.2c-0.8,6.2-4,12.2-0.5,18.4c2.5,4.4,4.4,9.2,7.1,13.5
		c5,8,12.5,13.4,20.4,18.2c12.2,7.4,20.4,17.4,20.8,32.4c0.1,4.6,0.2,9.2,0.5,13.8c0.2,2.9-0.9,4-3.2,4.2h-7.1c-2.6,0-5.2,0-7.8,0
		c0.3,0,0.6,0,0.8,0c-0.4,0-0.7,0-1.1,0c0.1,0,0.2,0,0.2,0c-2.6-0.1-5.4-0.1-8,0c0,0,0,0,0,0c-1,0-1.9,0-2.9,0.1H64.4
		c0.9,2.9,1.6,5.3,2.4,7.6c2.1,6.2,2.1,6.2,8.6,6.2c13.8,0,27.5,0,41.8,0c0-4.7,0-9.1,0-13.6c0.4,0,0.7-0.1,1.4,0.3
		c0.3,0.3,0.5,0.6,0.6,0.9v10.4c0,1.1,0.9,2,2,2H141c1.1,0,2-0.9,2-2V89.9C143.1,88.8,142.1,87.8,141,87.8z M138,104.5
		c0,3.8-3.1,6.8-6.8,6.8c-3.8,0-6.8-3.1-6.8-6.8v-6.8c0-3.8,3.1-6.8,6.8-6.8c3.8,0,6.8,3.1,6.8,6.8V104.5z"/>
	
		<linearGradient id="SVGID_00000044144653551179939750000005942973203159977392_" gradientUnits="userSpaceOnUse" x1="-11.0523" y1="117.396" x2="107.7626" y2="17.2478">
		<stop  offset="0" style="stop-color:#FBB040"/>
		<stop  offset="0.486" style="stop-color:#FCF284"/>
		<stop  offset="1" style="stop-color:#DEAF26"/>
	</linearGradient>
	<path style="fill:url(#SVGID_00000044144653551179939750000005942973203159977392_);" d="M7.4,93.8c0.5,0,1.2-0.2,2.1-0.5
		c0.9-0.3,1.7-0.7,2.6-1.1c0.9-0.4,1.7-0.8,2.4-1.2c0.7-0.4,1.1-0.7,1.3-1l0.7,0.3v17.1c0,1,0.2,1.8,0.7,2.4c0.4,0.5,1,0.9,1.7,1.2
		v0.4H7.5v-0.4c0.7-0.3,1.3-0.7,1.7-1.2c0.4-0.5,0.7-1.3,0.7-2.4v-9.9c0-0.7-0.2-1.4-0.6-1.9c-0.4-0.5-1-0.9-1.8-1.1V93.8z
		 M8.4,83.8c0-0.7,0.1-1.3,0.3-1.8c0.2-0.5,0.5-0.9,0.9-1.3c0.4-0.3,0.8-0.6,1.3-0.8s1-0.3,1.5-0.3c0.5,0,1,0.1,1.5,0.3
		s0.9,0.4,1.3,0.8c0.4,0.3,0.7,0.8,0.9,1.3s0.3,1.1,0.3,1.8c0,0.7-0.1,1.3-0.3,1.8s-0.5,0.9-0.9,1.3c-0.4,0.3-0.8,0.6-1.3,0.8
		s-1,0.3-1.5,0.3c-0.5,0-1-0.1-1.5-0.3s-0.9-0.4-1.3-0.8c-0.4-0.3-0.7-0.8-0.9-1.3C8.5,85.1,8.4,84.5,8.4,83.8z"/>
	
		<linearGradient id="SVGID_00000029014543772807433960000005907897897975579829_" gradientUnits="userSpaceOnUse" x1="-1.7305" y1="128.4552" x2="117.0843" y2="28.3071">
		<stop  offset="0" style="stop-color:#FBB040"/>
		<stop  offset="0.486" style="stop-color:#FCF284"/>
		<stop  offset="1" style="stop-color:#DEAF26"/>
	</linearGradient>
	<path style="fill:url(#SVGID_00000029014543772807433960000005907897897975579829_);" d="M20.2,100.8c0-1.7,0.2-3.1,0.8-4.5
		c0.5-1.3,1.2-2.5,2.2-3.4c0.9-0.9,2.1-1.6,3.4-2.1c1.3-0.5,2.8-0.8,4.5-0.8c1.7,0,3.2,0.3,4.5,0.8c1.3,0.5,2.5,1.2,3.4,2.1
		c0.9,0.9,1.7,2.1,2.2,3.4s0.8,2.8,0.8,4.5c0,1.7-0.2,3.2-0.7,4.6c-0.5,1.3-1.2,2.5-2.1,3.4c-0.9,0.9-2.1,1.6-3.4,2.1
		c-1.3,0.5-2.9,0.7-4.6,0.7c-1.7,0-3.2-0.2-4.6-0.7c-1.3-0.5-2.5-1.2-3.4-2.1c-0.9-0.9-1.6-2.1-2.1-3.4
		C20.4,104,20.2,102.5,20.2,100.8z M27.2,100.8c0,0.4,0,0.9,0,1.6c0,0.6,0.1,1.3,0.1,2c0.1,0.7,0.2,1.5,0.4,2.2
		c0.2,0.7,0.4,1.4,0.7,2c0.3,0.6,0.6,1.1,1.1,1.4s1,0.6,1.6,0.6c0.6,0,1.2-0.2,1.6-0.6c0.4-0.4,0.8-0.9,1.1-1.4
		c0.3-0.6,0.5-1.2,0.7-2c0.2-0.7,0.3-1.5,0.4-2.2s0.1-1.4,0.1-2c0-0.6,0-1.2,0-1.6s0-0.9,0-1.6c0-0.6-0.1-1.3-0.1-2
		s-0.2-1.5-0.4-2.2c-0.2-0.7-0.4-1.4-0.7-2c-0.3-0.6-0.6-1.1-1.1-1.4c-0.4-0.4-1-0.6-1.6-0.6c-0.6,0-1.2,0.2-1.6,0.6
		s-0.8,0.9-1.1,1.4c-0.3,0.6-0.5,1.2-0.7,2c-0.2,0.7-0.3,1.5-0.4,2.2c-0.1,0.7-0.1,1.4-0.1,2C27.2,99.9,27.2,100.4,27.2,100.8z"/>
	
		<linearGradient id="SVGID_00000028321918131294846650000009902867520579635106_" gradientUnits="userSpaceOnUse" x1="8.3526" y1="140.4177" x2="127.1674" y2="40.2695">
		<stop  offset="0" style="stop-color:#FBB040"/>
		<stop  offset="0.486" style="stop-color:#FCF284"/>
		<stop  offset="1" style="stop-color:#DEAF26"/>
	</linearGradient>
	<path style="fill:url(#SVGID_00000028321918131294846650000009902867520579635106_);" d="M43.3,107.5c0-0.7,0.1-1.3,0.3-1.8
		c0.2-0.5,0.5-0.9,0.9-1.3c0.4-0.3,0.8-0.6,1.3-0.8s1-0.3,1.5-0.3c0.5,0,1,0.1,1.5,0.3c0.5,0.2,0.9,0.4,1.3,0.8
		c0.4,0.3,0.7,0.8,0.9,1.3s0.3,1.1,0.3,1.8c0,0.7-0.1,1.3-0.3,1.8s-0.5,0.9-0.9,1.3c-0.4,0.3-0.8,0.6-1.3,0.8
		c-0.5,0.2-1,0.3-1.5,0.3c-0.5,0-1-0.1-1.5-0.3s-0.9-0.4-1.3-0.8c-0.4-0.3-0.7-0.8-0.9-1.3C43.5,108.8,43.3,108.2,43.3,107.5z"/>
</g>
</svg>
